<?xml version="1.0" encoding="UTF-8"?>
<svg width="21.431mm" height="58.57mm" version="1.1" viewBox="0 0 21.431 58.57" xmlns="http://www.w3.org/2000/svg">
<g transform="translate(-58.414 -124.34)" fill="none" stroke="#666" stroke-width=".26458px">
<path d="m58.546 129.78 10.583-5.2917 10.583 5.2917v5.2917l-10.583-5.2917-10.583 5.2917v-5.2917"/>
<path d="m58.546 135.07 10.583-5.2917 10.583 5.2917v5.2917l-10.583-5.2917-10.583 5.2917v-5.2917"/>
<path d="m58.546 140.36 10.583-5.2917 10.583 5.2917v5.2917l-10.583-5.2917-10.583 5.2917v-5.2917"/>
<path d="m58.546 145.65 10.583-5.2917 10.583 5.2917v5.2917l-10.583-5.2917-10.583 5.2917v-5.2917"/>
<path d="m58.546 150.94 10.583-5.2917 10.583 5.2917v5.2917l-10.583-5.2917-10.583 5.2917v-5.2917"/>
<path d="m58.546 156.23 10.583-5.2917 10.583 5.2917v5.2917l-10.583-5.2917-10.583 5.2917v-5.2917"/>
<path d="m58.546 161.53 10.583-5.2917 10.583 5.2917v5.2917l-10.583-5.2917-10.583 5.2917v-5.2917"/>
<path d="m58.546 166.82 10.583-5.2917 10.583 5.2917v5.2917l-10.583-5.2917-10.583 5.2917v-5.2917"/>
<path d="m58.546 172.11 10.583-5.2917 10.583 5.2917v5.2917l-10.583-5.2917-10.583 5.2917v-5.2917"/>
<path d="m58.546 177.4 10.583-5.2917 10.583 5.2917v5.2917l-10.583-5.2917-10.583 5.2917v-5.2917"/>
</g>
</svg>
