<?xml version="1.0" encoding="UTF-8"?>
<svg width="21.431mm" height="58.547mm" version="1.1" viewBox="0 0 21.431 58.547" xmlns="http://www.w3.org/2000/svg">
<g transform="translate(-21.034 -50.101)" fill="none" stroke="#666" stroke-width=".26458px">
<path d="m21.167 55.562c21.167-5.2917 21.167-5.2917 21.167-5.2917v5.2917l-21.167 5.2917z"/>
<path d="m21.167 60.854c21.167-5.2917 21.167-5.2917 21.167-5.2917v5.2917l-21.167 5.2917z"/>
<path d="m21.167 66.146c21.167-5.2917 21.167-5.2917 21.167-5.2917v5.2917l-21.167 5.2917z"/>
<path d="m21.167 71.438c21.167-5.2917 21.167-5.2917 21.167-5.2917v5.2917l-21.167 5.2917z"/>
<path d="m21.167 76.729c21.167-5.2917 21.167-5.2917 21.167-5.2917v5.2917l-21.167 5.2917z"/>
<path d="m21.167 82.021c21.167-5.2917 21.167-5.2917 21.167-5.2917v5.2917l-21.167 5.2917z"/>
<path d="m21.167 87.312c21.167-5.2917 21.167-5.2917 21.167-5.2917v5.2917l-21.167 5.2917z"/>
<path d="m21.167 92.604 21.167-5.2917v5.2917l-21.167 5.2917z"/>
<path d="m21.167 97.896c21.167-5.2917 21.167-5.2917 21.167-5.2917v5.2917l-21.167 5.2917z"/>
<path d="m21.167 103.19c21.167-5.2917 21.167-5.2917 21.167-5.2917v5.2917l-21.167 5.2917z"/>
</g>
</svg>
